HIERARCHY
ROOT Hips
{
	OFFSET 0.000000 0.000000 0.000000 
	CHANNELS 6 Xposition Yposition Zposition Zrotation Xrotation Yrotation
	JOINT Spine
	{
		OFFSET -0.000000 8.061080 0.000000 
		CHANNELS 3 Zrotation Xrotation Yrotation
		JOINT Spine1
		{
			OFFSET -0.000000 20.532677 0.000000 
			CHANNELS 3 Zrotation Xrotation Yrotation
			JOINT Neck
			{
				OFFSET -0.000000 22.498795 0.000000 
				CHANNELS 3 Zrotation Xrotation Yrotation
				JOINT Head
				{
					OFFSET -0.000000 15.237408 1.966117 
					CHANNELS 3 Zrotation Xrotation Yrotation
					End Site
					{
						OFFSET -0.000000 19.661171 0.000000 
					}
				}
			}
			JOINT LeftShoulder
			{
				OFFSET 3.894675 16.042269 -0.398189 
				CHANNELS 3 Zrotation Xrotation Yrotation
				JOINT LeftArm
				{
					OFFSET 19.709621 0.000000 0.000000 
					CHANNELS 3 Zrotation Xrotation Yrotation
					JOINT LeftForeArm
					{
						OFFSET 25.566900 0.000000 0.000000 
						CHANNELS 3 Zrotation Xrotation Yrotation
						JOINT LeftHand
						{
							OFFSET 25.401896 0.000000 0.000000 
							CHANNELS 3 Zrotation Xrotation Yrotation
							End Site
							{
								OFFSET 14.745877 0.000000 0.000000 
							}
						}
					}
				}
			}
			JOINT RightShoulder
			{
				OFFSET -3.930777 16.042269 -0.398189 
				CHANNELS 3 Zrotation Xrotation Yrotation
				JOINT RightArm
				{
					OFFSET -19.709621 0.000000 0.000000 
					CHANNELS 3 Zrotation Xrotation Yrotation
					JOINT RightForeArm
					{
						OFFSET -25.566900 0.000000 0.000000 
						CHANNELS 3 Zrotation Xrotation Yrotation
						JOINT RightHand
						{
							OFFSET -25.401896 0.000000 0.000000 
							CHANNELS 3 Zrotation Xrotation Yrotation
							End Site
							{
								OFFSET -14.745877 0.000000 0.000000 
							}
						}
					}
				}
			}
		}
	}
	JOINT LeftUpLeg
	{
		OFFSET 9.830585 0.000000 0.000000 
		CHANNELS 3 Zrotation Xrotation Yrotation
		JOINT LeftLeg
		{
			OFFSET -0.000000 -46.474842 0.000000 
			CHANNELS 3 Zrotation Xrotation Yrotation
			JOINT LeftFoot
			{
				OFFSET -0.000000 -30.290520 0.000000 
				CHANNELS 3 Zrotation Xrotation Yrotation
				JOINT LeftToeBase
				{
					OFFSET -0.000000 -6.389880 14.745877 
					CHANNELS 3 Zrotation Xrotation Yrotation
					End Site
					{
						OFFSET -0.000000 0.000000 3.932234 
					}
				}
			}
		}
	}
	JOINT RightUpLeg
	{
		OFFSET -9.830585 0.000000 0.000000 
		CHANNELS 3 Zrotation Xrotation Yrotation
		JOINT RightLeg
		{
			OFFSET -0.000000 -46.474842 0.000000 
			CHANNELS 3 Zrotation Xrotation Yrotation
			JOINT RightFoot
			{
				OFFSET -0.000000 -30.290520 0.000000 
				CHANNELS 3 Zrotation Xrotation Yrotation
				JOINT RightToeBase
				{
					OFFSET -0.000000 -6.389880 14.745877 
					CHANNELS 3 Zrotation Xrotation Yrotation
					End Site
					{
						OFFSET -0.000000 0.000000 3.932234 
					}
				}
			}
		}
	}
}
MOTION
Frames: 7
Frame Time: 0.010000
0.000000 87.630493 0.000000 -1.739472 3.112767 2.411060 2.591771 -10.040966 0.114497 0.714147 0.756541 -0.047175 4.297331 7.784265 2.703245 -1.468394 4.881997 3.910700 3.194578 9.261588 -2.296513 -67.115448 33.561199 -27.727167 -14.878711 1.092266 -3.838989 5.182144 0.925381 7.381649 -8.691668 8.134467 -8.062141 51.505409 51.714058 40.043964 5.028232 -9.968178 6.142377 6.656420 -9.995475 4.163249 5.864794 3.476592 0.315214 2.101800 -5.329934 -1.609701 0.301211 1.794770 -1.621717 0.000000 0.000000 0.000000 -7.115042 -2.022068 7.502864 3.425492 8.785341 0.038651 0.000000 0.000000 0.000000 0.000000 0.000000 0.000000 
0.001385 87.629974 -0.001753 -1.735739 3.113100 2.413573 2.676269 -10.025564 0.124695 0.542482 0.733933 -0.043918 4.406375 7.788431 2.689831 -1.493796 4.881570 3.923388 3.285359 9.268921 -2.368517 -67.137703 33.589008 -27.664717 -14.591979 0.070899 -3.816278 4.562091 -0.129853 7.223684 -8.596332 8.101644 -8.054529 51.546612 51.750767 39.976288 5.015376 -9.979080 6.154245 6.610197 -10.008024 4.160692 5.836137 3.462302 0.310996 2.071982 -5.259579 -1.323415 0.514473 1.698462 -1.841075 0.000000 0.000000 0.000000 -7.120574 -2.025206 7.498420 3.428311 8.789877 0.038851 0.000000 0.000000 0.000000 0.000000 0.000000 0.000000 
0.001478 87.630104 -0.003402 -1.735381 3.110929 2.418198 2.678459 -10.025243 0.122928 0.539471 0.740586 -0.045276 4.416035 7.798901 2.685076 -1.509012 4.857633 3.923113 3.285184 9.267482 -2.378839 -67.143860 33.576511 -27.659143 -14.585153 0.082408 -3.814287 4.545609 -0.119655 7.207880 -8.596519 8.107217 -8.055790 51.569004 51.732430 39.963581 5.019217 -9.979432 6.158471 6.573915 -10.010961 4.144856 5.831367 3.463050 0.318725 2.076445 -5.261164 -1.311663 0.480223 1.705262 -1.836440 0.000000 0.000000 0.000000 -7.086928 -1.651665 7.500133 3.428311 8.789877 0.038851 0.000000 0.000000 0.000000 0.000000 0.000000 0.000000 
0.003661 87.631859 -0.003200 -1.747020 3.120991 2.424437 2.610985 -10.046509 0.100192 0.702543 0.759127 -0.052002 4.322238 7.785098 2.694783 -1.504134 4.868326 3.912962 3.200174 9.248920 -2.313208 -67.132347 33.564083 -27.716457 -14.875618 1.098339 -3.840279 5.200773 0.931891 7.365404 -8.682446 8.139411 -8.071171 51.476933 51.730129 40.066925 5.041109 -9.988657 6.160774 6.518524 -10.022255 4.165737 5.866456 3.460520 0.307254 2.109675 -5.326663 -1.614414 0.347868 1.798746 -1.645113 0.000000 0.000000 0.000000 -7.078272 -1.660361 7.496188 3.428311 8.789877 0.038851 0.000000 0.000000 0.000000 0.000000 0.000000 0.000000 
0.002125 87.629692 -0.004396 -1.737954 3.106266 2.421597 2.680914 -10.016323 0.113371 0.546963 0.740831 -0.047884 4.407318 7.808714 2.679001 -1.507421 4.834830 3.914901 3.283986 9.260318 -2.386017 -67.132599 33.605709 -27.673773 -14.586545 0.064529 -3.817892 4.555587 -0.136765 7.220505 -8.598720 8.106258 -8.051290 51.591213 51.719208 39.941387 5.028789 -9.975410 6.163108 6.485624 -10.009378 4.170449 5.837157 3.465139 0.309092 2.076959 -5.254525 -1.315665 0.484072 1.692507 -1.849134 0.000000 0.000000 0.000000 -7.085513 -1.651473 7.500944 3.428311 8.789877 0.038851 0.000000 0.000000 0.000000 0.000000 0.000000 0.000000 
0.006320 87.633209 -0.016909 -1.750684 3.115926 2.395018 2.674809 -10.041284 0.152140 0.580839 0.755502 -0.035532 4.450806 7.889668 2.666363 -1.569622 4.727534 3.922958 3.276258 9.261035 -2.488494 -67.182365 33.537231 -27.635347 -14.802555 1.058149 -3.872390 5.159966 0.887905 7.378074 -8.544838 8.161913 -8.064522 51.463840 51.745899 40.009560 4.949574 -10.027090 6.185605 6.496117 -10.057293 4.172884 5.843360 3.449540 0.338049 2.079155 -5.242382 -1.316930 0.458111 1.688590 -1.810254 0.000000 0.000000 0.000000 -7.072335 -1.682117 7.514522 3.428311 8.789877 0.038851 0.000000 0.000000 0.000000 0.000000 0.000000 0.000000 
0.002255 87.629242 -0.006801 -1.737236 3.107603 2.427881 2.598264 -9.987004 0.053073 0.686080 0.719566 -0.065958 4.354959 7.760171 2.711951 -1.514164 4.888241 3.938308 3.272686 9.009505 -2.312635 -67.380486 33.709881 -27.407930 -14.804463 1.070529 -3.869897 5.170898 0.900649 7.363766 -8.646708 8.099410 -8.029674 51.480034 51.759102 40.018406 5.041008 -10.019798 6.168730 6.487708 -10.052569 4.206416 5.853542 3.456602 0.322201 2.061550 -5.256644 -1.441318 0.429785 1.712282 -1.757053 0.000000 0.000000 0.000000 -7.085726 -1.658373 7.486892 3.428311 8.789877 0.038851 0.000000 0.000000 0.000000 0.000000 0.000000 0.000000 
